<svg xmlns="http://www.w3.org/2000/svg" width="32.57" height="31.85"><path fill="#191717" d="M16.29 0c-9 0-16.29 7.29-16.29 16.29 0 7.2 4.67 13.3 11.14 15.46.81.15 1.11-.35 1.11-.79l-.02-2.77c-4.53.98-5.49-2.18-5.49-2.18-.74-1.88-1.81-2.38-1.81-2.38-1.48-1.01.11-.99.11-.99 1.64.12 2.5 1.68 2.5 1.68 1.45 2.49 3.81 1.77 4.74 1.35.15-1.05.57-1.77 1.03-2.18-3.62-.41-7.42-1.81-7.42-8.05 0-1.78.64-3.23 1.68-4.37-.17-.41-.73-2.07.16-4.31 0 0 1.37-.44 4.48 1.67 1.3-.36 2.69-.54 4.08-.55 1.38.01 2.78.19 4.08.55 3.11-2.11 4.48-1.67 4.48-1.67.89 2.24.33 3.9.16 4.31 1.04 1.14 1.67 2.59 1.67 4.37 0 6.26-3.81 7.63-7.44 8.04.58.5 1.11 1.5 1.11 3.02 0 2.18-.02 3.93-.02 4.47 0 .44.29.94 1.12.78 6.47-2.16 11.13-8.26 11.13-15.45 0-9.01-7.3-16.3-16.29-16.3"/></svg>